# xmcd
# Copyright (C) 1995-1998 Ti Kan
#
# Track frame offsets:
#       182
#       20707
#       37125
#       51232
#       66265
#       78980
#       91167
#       98125
#       118502
#       128805
#       141157
#
# Disc length: 2036 seconds
#
# Revision: 0
# Processed by: cddbd v1.5.2PL0 Copyright (c) Steve Scherf et al.
# Submitted via: CD-Import v1.0
#
DISCID=9607f20b
DTITLE=Steely Dan - Pretzekl Logic
DYEAR=1900
DGENRE=
TTITLE0=Rikki Don't Lose That Number
TTITLE1=	night By Night
TTITLE2=Any Major Dude Will Tell You
TTITLE3=Barrytown
TTITLE4=East St. Louis Toodle-Oo
TTITLE5=Parker's Band
TTITLE6=Through With Buzz
TTITLE7=Pretzel Logic
TTITLE8=With A Gun
TTITLE9=Charlie Freak
TTITLE10=Monkey In Your Soul
EXTD=
EXTT0=
EXTT1=
EXTT2=
EXTT3=
EXTT4=
EXTT5=
EXTT6=
EXTT7=
EXTT8=
EXTT9=
EXTT10=
PLAYORDER=
